<svg xmlns="http://www.w3.org/2000/svg" viewBox="0 0 24 24" fill="black">
  <path d="M16.365 1.43c0 1.14-.42 2.053-1.258 2.73-.84.672-1.747 1.062-2.72 1.158-.093-.22-.14-.483-.14-.79 0-1.007.373-1.888 1.12-2.64.746-.746 1.62-1.14 2.62-1.18.027.242.04.467.04.722zM20 17.682c-.366.845-.68 1.457-.94 1.837-.48.68-.994 1.278-1.543 1.79-.672.613-1.29.922-1.86.93-.47 0-1.036-.134-1.7-.403-.666-.27-1.283-.403-1.853-.403-.58 0-1.213.133-1.9.403-.69.27-1.207.408-1.55.414-.53.027-1.113-.277-1.75-.91-.587-.593-1.113-1.298-1.58-2.117C4.92 18.574 4.4 17.013 4 15.14c-.08-.353-.12-.67-.12-.953 0-1.14.24-2.147.722-3.02a5.535 5.535 0 011.797-2c.797-.53 1.693-.793 2.69-.793.423 0 .98.15 1.676.45.693.3 1.14.45 1.33.45.14 0 .65-.16 1.522-.48.82-.287 1.517-.406 2.09-.36 1.545.126 2.72.747 3.53 1.867-1.402.847-2.097 2.03-2.09 3.55 0 1.184.433 2.166 1.3 2.946z"></path>
</svg>
